Coordinates
version=1
nRows=10
nColumns=46
inDegrees=yes

Units are S.I. units (second, meters, Newtons, ...)
Angles are in degrees.

endheader
time	pelvis_tilt	pelvis_list	pelvis_rotation	pelvis_tx	pelvis_ty	pelvis_tz	bb_angle	bb_tx	bb_ty	bb_tz	hip_flexion_r	hip_adduction_r	hip_rotation_r	knee_angle_r	knee_angle_r_beta	ankle_angle_r	subtalar_angle_r	mtp_angle_r	crank_angle_r	hip_flexion_l	hip_adduction_l	hip_rotation_l	knee_angle_l	knee_angle_l_beta	ankle_angle_l	subtalar_angle_l	mtp_angle_l	crank_angle_l	lumbar_extension	lumbar_bending	lumbar_rotation	arm_flex_r	arm_add_r	arm_rot_r	elbow_flex_r	pro_sup_r	wrist_flex_r	wrist_dev_r	arm_flex_l	arm_add_l	arm_rot_l	elbow_flex_l	pro_sup_l	wrist_flex_l	wrist_dev_l
      2.50500000	    -17.67655112	      6.87551248	      7.80187081	      0.14946077	      1.06756355	     -0.21397600	      0.00000000	      0.50000000	      0.00000000	      0.25000000	     43.35215175	    -13.73843636	     -0.88413677	     29.27230366	      0.51089808	    -31.34561752	     -6.93224442	      0.00000000	      0.00000000	     81.30669062	      3.06355645	     -0.48466223	    113.62579128	      1.98314417	     10.36032753	     -7.59413515	      0.00000000	      0.00000000	    -51.58932662	     -2.03279039	     -8.99961370	     74.71728854	    -10.39557424	     21.38192360	     52.94587458	     44.99945374	      0.00000000	      0.00000000	     83.59128639	    -10.26168363	     31.49629936	     42.58577097	     44.03103182	      0.00000000	      0.00000000
      2.51000000	    -17.76982022	      6.97242013	      8.27636625	      0.14838867	      1.06679853	     -0.21453919	      0.00000000	      0.50000000	      0.00000000	      0.25000000	     43.42487020	    -14.01568908	     -0.66770289	     29.66135986	      0.51768839	    -31.61880823	     -7.44768016	      0.00000000	      0.00000000	     81.80778020	      3.57506010	     -0.58933206	    113.69255191	      1.98430937	     10.84509506	     -7.90630301	      0.00000000	      0.00000000	    -51.57901199	     -1.96453002	     -9.45498008	     74.69573129	    -10.57160719	     21.30679469	     53.03383292	     45.13205710	      0.00000000	      0.00000000	     83.81516973	    -10.40210757	     32.00772570	     42.84989756	     44.15279232	      0.00000000	      0.00000000
      2.51500000	    -17.72549321	      7.04305596	      8.50100159	      0.14729713	      1.06623572	     -0.21428100	      0.00000000	      0.50000000	      0.00000000	      0.25000000	     43.39759475	    -14.00510585	     -0.20044449	     30.01795833	      0.52391221	    -31.99033852	     -8.17804795	      0.00000000	      0.00000000	     82.11243460	      3.73506226	     -0.69058861	    113.75079727	      1.98532594	     11.48711341	     -8.03257456	      0.00000000	      0.00000000	    -51.72679509	     -2.00682521	     -9.78593468	     74.83346479	    -10.45101944	     21.12659004	     53.00262043	     44.96661333	      0.00000000	      0.00000000	     83.97784142	    -10.55738747	     31.95786496	     43.23618722	     44.05845185	      0.00000000	      0.00000000
      2.52000000	    -17.65361913	      7.04987203	      8.72437422	      0.14616510	      1.06558460	     -0.21398399	      0.00000000	      0.50000000	      0.00000000	      0.25000000	     43.37768418	    -13.91323013	      0.27380138	     30.45167827	      0.53148205	    -32.38912944	     -8.95682203	      0.00000000	      0.00000000	     82.40152974	      3.89361507	     -0.73404315	    113.82705607	      1.98665691	     12.16562492	     -8.29823245	      0.00000000	      0.00000000	    -51.90159348	     -2.02559680	    -10.05480967	     74.98578740	    -10.44468204	     21.00598633	     53.04382693	     44.89390249	      0.00000000	      0.00000000	     84.22190236	    -10.78230547	     32.26806132	     43.60537399	     44.05891576	      0.00000000	      0.00000000
      2.52500000	    -17.63476316	      7.09404113	      8.98882008	      0.14501966	      1.06475964	     -0.21373093	      0.00000000	      0.50000000	      0.00000000	      0.25000000	     43.46555949	    -13.88029463	      0.78204617	     30.99223332	      0.54091651	    -32.75244310	     -9.72351854	      0.00000000	      0.00000000	     82.71152972	      4.12065449	     -0.80303995	    113.86515623	      1.98732188	     12.94672386	     -8.50132926	      0.00000000	      0.00000000	    -51.98985537	     -1.99381908	    -10.39015355	     75.14263172	    -10.27833444	     20.83418525	     53.02477381	     44.71219727	      0.00000000	      0.00000000	     84.35947670	    -11.02425199	     32.32181087	     44.01984755	     44.00661178	      0.00000000	      0.00000000
      2.53000000	    -17.56699191	      7.08652922	      9.23767337	      0.14377013	      1.06399452	     -0.21348797	      0.00000000	      0.50000000	      0.00000000	      0.25000000	     43.46398642	    -13.75101772	      1.35932059	     31.47802404	      0.54939516	    -33.11402900	    -10.55400837	      0.00000000	      0.00000000	     82.97165741	      4.34546183	     -0.82800099	    113.89331950	      1.98781342	     13.72800135	     -8.86073336	      0.00000000	      0.00000000	    -52.17061407	     -1.96264363	    -10.65526489	     75.31969193	    -10.24070046	     20.76477380	     53.02035083	     44.60801385	      0.00000000	      0.00000000	     84.62460549	    -11.23323572	     32.52095418	     44.43713782	     43.98297684	      0.00000000	      0.00000000
      2.53500000	    -17.46665875	      7.16694031	      9.46481251	      0.14250793	      1.06317148	     -0.21315406	      0.00000000	      0.50000000	      0.00000000	      0.25000000	     43.49723026	    -13.66404204	      2.06189266	     32.10529046	      0.56034303	    -33.34276615	    -11.27384382	      0.00000000	      0.00000000	     83.16100078	      4.57647896	     -0.93402854	    113.89784008	      1.98789232	     14.48987566	     -9.16934840	      0.00000000	      0.00000000	    -52.43450985	     -2.03011208	    -10.97953314	     75.41451249	    -10.44755459	     20.93047204	     53.35202538	     44.93917376	      0.00000000	      0.00000000	     85.02948190	    -11.95998759	     33.97345839	     45.22840030	     44.29241110	      0.00000000	      0.00000000
      2.54000000	    -17.41617731	      7.22719767	      9.74159991	      0.14115495	      1.06224590	     -0.21308688	      0.00000000	      0.50000000	      0.00000000	      0.25000000	     43.58038268	    -13.59812880	      2.72751437	     32.75383051	      0.57166219	    -33.58717910	    -12.03160248	      0.00000000	      0.00000000	     83.39629518	      4.90577229	     -1.03343368	    113.87005269	      1.98740734	     15.33470081	     -9.57233688	      0.00000000	      0.00000000	    -52.60298247	     -2.00695415	    -11.30686881	     75.67307505	    -10.36473607	     20.88757547	     53.17813919	     44.65887676	      0.00000000	      0.00000000	     85.24856130	    -12.19523286	     34.12963514	     45.84986811	     43.77447862	      0.00000000	      0.00000000
      2.54500000	    -17.32751598	      7.28337126	     10.05493317	      0.13979059	      1.06142864	     -0.21305226	      0.00000000	      0.50000000	      0.00000000	      0.25000000	     43.59690096	    -13.54345468	      3.35059016	     33.41354187	      0.58317632	    -33.74061974	    -12.72021914	      0.00000000	      0.00000000	     83.57426732	      5.28952759	     -1.10880544	    113.81235247	      1.98640028	     16.19167877	    -10.07012042	      0.00000000	      0.00000000	    -52.82994825	     -1.94675579	    -11.66872274	     75.93926409	    -10.27043497	     20.82589610	     53.03469495	     44.46363790	      0.00000000	      0.00000000	     85.50459483	    -12.41726487	     34.19343731	     46.40369993	     43.51928230	      0.00000000	      0.00000000
      2.55000000	    -17.22037434	      7.40873059	     10.36187911	      0.13834118	      1.06057090	     -0.21303732	      0.00000000	      0.50000000	      0.00000000	      0.25000000	     43.64070359	    -13.53749551	      4.03245107	     34.15576918	      0.59613063	    -33.89576542	    -13.53484964	      0.00000000	      0.00000000	     83.70897896	      5.70981111	     -1.21145332	    113.71829380	      1.98475865	     17.08866815	    -10.29013551	      0.00000000	      0.00000000	    -53.11691579	     -1.97615838	    -11.86319730	     76.03735761	    -10.60763426	     20.68940723	     53.39013552	     44.51741977	      0.00000000	      0.00000000	     85.90667514	    -12.46244438	     34.78000793	     46.69978719	     43.43666136	      0.00000000	      0.00000000
